<?xml version="1.0"?>
<svg id="Layer_2" style="enable-background:new 0 0 32 32;" version="1.1" viewBox="0 0 32 32" xml:space="preserve" xmlns="http://www.w3.org/2000/svg" xmlns:xlink="http://www.w3.org/1999/xlink">
	<g>
		<path d="M16.13,31.5c7.46997,0,13.92999-5.32001,15.33997-12.65002c0.12006-0.58997-0.12994-1.19-0.62994-1.52997   c-0.5-0.33002-1.15002-0.34003-1.66003-0.01001c-1.69,1.09998-3.65997,1.67999-5.69,1.67999   C17.71002,18.98999,13,14.28998,13,8.51001c0-2.03003,0.59003-4,1.69-5.69c0.33002-0.51001,0.32001-1.16003-0.01001-1.66003   c-0.33997-0.5-0.94-0.75-1.52997-0.63C5.82001,1.94,0.5,8.39996,0.5,15.87C0.5,24.48999,7.51001,31.5,16.13,31.5z" />
	</g>
</svg>
